<svg width="206" height="61" viewBox="0 0 206 61" fill="none" xmlns="http://www.w3.org/2000/svg">
<path d="M204.52 53.7868C204.52 56.9893 201.926 59.6276 198.676 59.6276H7.21762C3.9674 59.6276 1.37332 57.0046 1.37332 53.7868V7.19806C1.37332 4.01081 3.9674 1.37256 7.20236 1.37256H198.676C201.911 1.37256 204.52 3.96506 204.52 7.19806V53.7868Z" fill="black"/>
<path d="M45.9762 30.1646C45.9304 25.2541 50.0046 22.8446 50.1877 22.7531C47.8683 19.3981 44.2976 18.9406 43.0159 18.8948C40.0403 18.5593 37.1258 20.6791 35.5999 20.6791C34.0282 20.6791 31.6782 18.9101 29.1452 18.9711C25.895 19.0168 22.8431 20.9078 21.1646 23.8511C17.7008 29.7986 20.2796 38.6131 23.6061 43.4473C25.2541 45.8111 27.192 48.4798 29.7098 48.3731C32.197 48.2663 33.1279 46.7871 36.1187 46.7871C39.079 46.7871 39.9335 48.3578 42.5276 48.3121C45.1979 48.2511 46.8765 45.9178 48.4787 43.5236C50.3861 40.8091 51.1643 38.1403 51.1948 38.0031C51.1338 37.9726 46.0067 36.0206 45.9762 30.1341V30.1646ZM41.0932 15.7076C42.4208 14.0301 43.3363 11.7883 43.0769 9.4856C41.1542 9.56185 38.7433 10.8123 37.3547 12.4441C36.1339 13.8776 35.02 16.2566 35.3099 18.4526C37.4768 18.6051 39.7046 17.3546 41.1085 15.7076H41.0932ZM81.8507 48.0376H78.3868L76.4947 42.0901H69.8874L68.0868 48.0376H64.7298L71.2455 27.7551H75.2739L81.8354 48.0376H81.8507ZM75.8996 39.5738L74.2211 34.2821C74.0227 33.7331 73.687 32.4521 73.1834 30.4696H73.1224C72.924 31.3236 72.6036 32.6046 72.1611 34.2821L70.452 39.5738H75.9148H75.8996ZM98.6664 40.5651C98.6664 43.0356 97.995 44.9876 96.6522 46.4516C95.4314 47.7326 93.9513 48.3731 92.1659 48.3731C90.228 48.3731 88.8547 47.6868 88.0002 46.2991H87.9391V54.0003H84.6889V38.2471C84.6889 36.6763 84.6431 35.0751 84.5668 33.4281H87.4356L87.6187 35.7613H87.6797C88.7479 34.0076 90.4264 33.1383 92.6085 33.1383C94.3327 33.1383 95.7671 33.8398 96.9268 35.1971C98.0713 36.5696 98.6511 38.3691 98.6511 40.5956L98.6664 40.5651ZM95.3551 40.6718C95.3551 39.2383 95.0194 38.0793 94.3785 37.1643C93.6766 36.1731 92.7305 35.7003 91.5403 35.7003C90.7468 35.7003 90.0144 35.9748 89.3582 36.5086C88.7021 37.0423 88.2901 37.7286 88.0765 38.5978C87.9849 39.0096 87.9239 39.3298 87.9239 39.5891V42.0291C87.9239 43.0966 88.2596 44.0116 88.9157 44.7283C89.5566 45.4603 90.4111 45.8263 91.4488 45.8263C92.6695 45.8263 93.6308 45.3688 94.3175 44.4233C95.0042 43.4778 95.3399 42.2273 95.3399 40.6871L95.3551 40.6718ZM115.513 40.5651C115.513 43.0356 114.841 44.9876 113.483 46.4516C112.293 47.7326 110.782 48.3731 108.997 48.3731C107.074 48.3731 105.686 47.6868 104.846 46.2991H104.801V54.0003H101.55V38.2471C101.55 36.6763 101.505 35.0751 101.428 33.4281H104.282L104.465 35.7613H104.526C105.594 34.0076 107.242 33.1383 109.455 33.1383C111.179 33.1383 112.629 33.8398 113.773 35.1971C114.933 36.5696 115.513 38.3691 115.513 40.5956V40.5651ZM112.201 40.6718C112.201 39.2383 111.896 38.0793 111.225 37.1643C110.508 36.1731 109.577 35.7003 108.387 35.7003C107.578 35.7003 106.861 35.9748 106.204 36.5086C105.564 37.0423 105.136 37.7286 104.938 38.5978C104.831 39.0096 104.785 39.3298 104.785 39.5891V42.0291C104.785 43.0966 105.091 44.0116 105.762 44.7283C106.433 45.4603 107.288 45.8263 108.325 45.8263C109.546 45.8263 110.508 45.3688 111.194 44.4233C111.866 43.4778 112.217 42.2273 112.217 40.6871L112.201 40.6718ZM134.343 42.3493C134.343 44.0726 133.732 45.4756 132.542 46.5736C131.214 47.7478 129.368 48.3426 127.003 48.3426C124.821 48.3426 123.066 47.9308 121.738 47.0768L122.501 44.3623C123.92 45.2163 125.492 45.6433 127.201 45.6433C128.422 45.6433 129.383 45.3688 130.07 44.8198C130.741 44.2708 131.092 43.5236 131.092 42.6086C131.092 41.7851 130.818 41.0836 130.253 40.5193C129.704 39.9551 128.758 39.4518 127.461 38.9486C123.905 37.6218 122.12 35.6851 122.12 33.1536C122.12 31.4761 122.73 30.1036 123.997 29.0361C125.217 27.9686 126.896 27.4348 128.971 27.4348C130.833 27.4348 132.359 27.7398 133.595 28.3956L132.756 31.0643C131.596 30.4543 130.314 30.1493 128.864 30.1493C127.72 30.1493 126.82 30.4086 126.179 30.9728C125.614 31.4913 125.355 32.1013 125.355 32.8333C125.355 33.6263 125.66 34.2973 126.27 34.8158C126.82 35.3038 127.796 35.8223 129.231 36.3866C130.985 37.0881 132.283 37.9116 133.091 38.8571C133.915 39.7721 134.312 40.9616 134.312 42.3646L134.343 42.3493ZM145.116 35.8376H141.514V42.9593C141.514 44.7588 142.125 45.6586 143.407 45.6586C143.986 45.6586 144.475 45.6128 144.856 45.5061L144.948 47.9766C144.292 48.2206 143.452 48.3426 142.399 48.3426C141.118 48.3426 140.111 47.9461 139.378 47.1683C138.661 46.4058 138.31 45.0638 138.31 43.2033V35.8528H136.174V33.4128H138.31V30.7441L141.514 29.7833V33.4433H145.085V35.8833L145.116 35.8376ZM161.29 40.6108C161.29 42.8526 160.634 44.6978 159.352 46.1466C157.979 47.6258 156.209 48.3731 153.981 48.3731C151.845 48.3731 150.136 47.6563 148.869 46.2381C147.588 44.8198 146.947 43.0356 146.947 40.8548C146.947 38.5673 147.588 36.7068 148.93 35.2581C150.227 33.8246 151.982 33.0926 154.225 33.0926C156.362 33.0926 158.101 33.8246 159.413 35.2276C160.634 36.6306 161.275 38.4301 161.275 40.6108H161.29ZM157.903 40.7176C157.903 39.3451 157.598 38.2013 157.033 37.2406C156.362 36.0663 155.385 35.4868 154.134 35.4868C152.821 35.4868 151.814 36.0663 151.143 37.2406C150.533 38.2013 150.273 39.3756 150.273 40.7786C150.273 42.1206 150.548 43.2796 151.143 44.2403C151.845 45.4298 152.821 46.0093 154.088 46.0093C155.339 46.0093 156.316 45.3993 157.018 44.2251C157.598 43.2338 157.903 42.0596 157.903 40.7176ZM171.85 36.2646C171.545 36.2036 171.178 36.1731 170.827 36.1731C169.683 36.1731 168.798 36.6306 168.172 37.4693C167.653 38.2318 167.379 39.2078 167.379 40.3668V48.0376H164.129L164.159 38.0183C164.159 36.3408 164.113 34.8158 164.037 33.4128H166.845L166.967 36.2341H167.058C167.409 35.2581 167.943 34.4956 168.691 33.9008C169.408 33.3823 170.187 33.1383 171.041 33.1383C171.346 33.1383 171.59 33.1383 171.835 33.1841V36.2798L171.85 36.2646ZM186.407 40.0313C186.407 40.6108 186.361 41.0988 186.285 41.5106H176.519C176.565 42.9593 177.038 44.0573 177.938 44.8198C178.777 45.4908 179.846 45.8263 181.143 45.8263C182.592 45.8263 183.889 45.5976 185.11 45.1401L185.598 47.4276C184.225 48.0071 182.577 48.3121 180.715 48.3121C178.427 48.3121 176.641 47.6411 175.344 46.3296C174.047 44.9571 173.406 43.1881 173.406 40.9463C173.406 38.7351 174.017 36.8898 175.207 35.4258C176.489 33.8703 178.198 33.0773 180.349 33.0773C182.455 33.0773 184.057 33.8398 185.141 35.4106C186.01 36.6611 186.453 38.1861 186.453 40.0161L186.407 40.0313ZM183.294 39.1926C183.325 38.2318 183.111 37.3931 182.684 36.6916C182.104 35.7766 181.234 35.3191 180.09 35.3191C179.022 35.3191 178.152 35.7766 177.496 36.6611C176.946 37.3626 176.626 38.1861 176.519 39.1926H183.294ZM74.8467 15.2501C74.8467 17.0801 74.3126 18.4068 73.2292 19.3218C72.2221 20.1606 70.7877 20.5723 68.9566 20.5723C68.041 20.5723 67.2781 20.5113 66.6372 20.4198V10.6751C67.4765 10.5226 68.392 10.4768 69.3839 10.4768C71.1387 10.4768 72.4357 10.8581 73.3513 11.6053C74.3279 12.4593 74.8314 13.6793 74.8314 15.2653L74.8467 15.2501ZM73.1682 15.3111C73.1682 14.1521 72.863 13.2523 72.2526 12.6271C71.6117 12.0171 70.7267 11.7121 69.5365 11.7121C69.0329 11.7121 68.6209 11.7121 68.2394 11.8036V19.2761C68.4378 19.2761 68.804 19.3066 69.3076 19.3066C70.5283 19.3066 71.4896 18.9558 72.1611 18.2848C72.8019 17.5833 73.1376 16.6073 73.1376 15.2958L73.1682 15.3111ZM83.7733 16.8361C83.7733 17.9341 83.4682 18.8491 82.8578 19.5506C82.1711 20.2826 81.3013 20.6486 80.2027 20.6486C79.1345 20.6486 78.3105 20.2978 77.6849 19.5811C77.0745 18.8948 76.7693 18.0103 76.7693 16.9428C76.7693 15.8448 77.0745 14.9603 77.7307 14.2283C78.3716 13.5268 79.2566 13.1608 80.3248 13.1608C81.3929 13.1608 82.2474 13.5116 82.8883 14.2283C83.4987 14.8993 83.8039 15.7533 83.8039 16.8513L83.7733 16.8361ZM82.1253 16.8818C82.1253 16.2261 81.9728 15.6618 81.6981 15.1738C81.3624 14.6096 80.8893 14.3198 80.2637 14.3198C79.6228 14.3198 79.1345 14.5943 78.7988 15.1586C78.4936 15.6161 78.3716 16.2261 78.3716 16.8971C78.3716 17.5376 78.5242 18.1171 78.7988 18.5746C79.1498 19.1541 79.6228 19.4438 80.2485 19.4438C80.8588 19.4438 81.3166 19.1388 81.6676 18.5746C81.9728 18.0866 82.1253 17.5071 82.1253 16.8513V16.8818ZM95.7824 13.2981L93.524 20.4656H92.0439L91.1283 17.3698C90.8689 16.5616 90.6705 15.7991 90.5179 15.0213C90.3653 15.8143 90.167 16.5921 89.9076 17.3546L88.931 20.4503H87.4356L85.3298 13.2828H86.9778L87.8018 16.6836C88.0002 17.4918 88.168 18.2543 88.3053 18.9711C88.4579 18.3916 88.6411 17.6291 88.9157 16.6836L89.9381 13.2676H91.2504L92.227 16.6226C92.4559 17.4461 92.6542 18.2391 92.8068 18.9863H92.8373C92.9442 18.2543 93.112 17.4613 93.3256 16.6226L94.2107 13.2676H95.7671L95.7824 13.2981ZM104.068 20.4808H102.466V16.3633C102.466 15.0976 101.978 14.4723 101.016 14.4723C100.559 14.4723 100.162 14.6248 99.8566 14.9756C99.5514 15.3263 99.3988 15.7381 99.3988 16.1956V20.4656H97.8119V15.3416C97.8119 14.7011 97.8119 14.0148 97.7661 13.2828H99.1852L99.2462 14.3961H99.292C99.4751 14.0606 99.7498 13.7861 100.116 13.5421C100.574 13.2371 101.032 13.1151 101.581 13.1151C102.252 13.1151 102.802 13.3286 103.259 13.7708C103.809 14.3046 104.083 15.0976 104.083 16.1498V20.4656L104.068 20.4808ZM108.493 20.4808H106.876V10.0041H108.478L108.493 20.4808ZM117.893 16.8361C117.893 17.9341 117.588 18.8491 116.947 19.5506C116.276 20.2826 115.421 20.6486 114.307 20.6486C113.27 20.6486 112.43 20.2978 111.805 19.5811C111.194 18.8948 110.859 18.0103 110.859 16.9428C110.859 15.8448 111.164 14.9603 111.835 14.2283C112.476 13.5268 113.361 13.1608 114.429 13.1608C115.497 13.1608 116.337 13.5116 116.993 14.2283C117.603 14.8993 117.908 15.7533 117.908 16.8513L117.893 16.8361ZM116.215 16.8818C116.215 16.2261 116.092 15.6618 115.803 15.1738C115.452 14.6096 114.979 14.3198 114.353 14.3198C113.712 14.3198 113.224 14.5943 112.888 15.1586C112.583 15.6161 112.43 16.2261 112.43 16.8971C112.43 17.5376 112.583 18.1171 112.888 18.5746C113.224 19.1541 113.697 19.4438 114.322 19.4438C114.933 19.4438 115.391 19.1388 115.757 18.5746C116.062 18.0866 116.215 17.5071 116.215 16.8513V16.8818ZM125.629 20.4808H124.195L124.043 19.6573H124.012C123.524 20.2978 122.822 20.6333 121.921 20.6333C121.25 20.6333 120.701 20.4198 120.289 19.9776C119.907 19.6116 119.724 19.1083 119.724 18.5288C119.724 17.6596 120.09 17.0038 120.823 16.5158C121.555 16.0583 122.593 15.8296 123.936 15.8448V15.6923C123.936 14.7468 123.432 14.2741 122.44 14.2741C121.723 14.2741 121.097 14.4571 120.563 14.8078L120.258 13.7403C120.914 13.3438 121.738 13.1303 122.7 13.1303C124.592 13.1303 125.538 14.1216 125.538 16.1041V18.7576C125.538 19.4896 125.568 20.0691 125.645 20.4808H125.629ZM123.951 18.0103V16.9428C122.211 16.8971 121.326 17.3698 121.326 18.3763C121.326 18.7423 121.433 19.0321 121.632 19.2151C121.845 19.3676 122.12 19.4743 122.425 19.4743C122.776 19.4743 123.112 19.3676 123.402 19.1388C123.707 18.9253 123.89 18.6356 123.966 18.3001V17.9951L123.951 18.0103ZM134.709 20.4808H133.29L133.229 19.3371H133.198C132.74 20.2063 131.977 20.6486 130.879 20.6486C130.009 20.6486 129.292 20.3131 128.742 19.6268C128.132 18.9406 127.857 18.0713 127.857 16.9733C127.857 15.8143 128.163 14.8688 128.803 14.1521C129.414 13.4811 130.131 13.1456 131.016 13.1456C131.977 13.1456 132.664 13.4506 133.045 14.1216H133.076V10.0041H134.678V18.5441C134.678 19.2456 134.678 19.8861 134.724 20.4808H134.709ZM133.061 17.4613V16.2413C133.061 16.0431 133.061 15.8753 133.015 15.7533C132.923 15.3721 132.71 15.0366 132.435 14.7773C132.13 14.5028 131.764 14.3808 131.367 14.3808C130.757 14.3808 130.299 14.6096 129.948 15.0823C129.612 15.5398 129.429 16.1498 129.429 16.9123C129.429 17.6138 129.582 18.1933 129.917 18.6356C130.268 19.0931 130.741 19.3523 131.321 19.3523C131.566 19.3596 131.809 19.308 132.029 19.2018C132.249 19.0956 132.441 18.9381 132.588 18.7423C132.893 18.3916 133.045 17.9493 133.045 17.4308L133.061 17.4613ZM148.396 16.8361C148.396 17.9341 148.091 18.8491 147.45 19.5506C146.779 20.2826 145.924 20.6486 144.81 20.6486C143.742 20.6486 142.918 20.2978 142.293 19.5811C141.682 18.8948 141.347 18.0103 141.347 16.9428C141.347 15.8448 141.652 14.9603 142.323 14.2283C142.964 13.5268 143.849 13.1608 144.917 13.1608C145.985 13.1608 146.84 13.5116 147.481 14.2283C148.091 14.8993 148.396 15.7533 148.396 16.8513V16.8361ZM146.718 16.8818C146.718 16.2261 146.596 15.6618 146.306 15.1738C145.97 14.6096 145.497 14.3198 144.871 14.3198C144.231 14.3198 143.742 14.5943 143.407 15.1586C143.101 15.6161 142.979 16.2261 142.979 16.8971C142.979 17.5376 143.132 18.1171 143.407 18.5746C143.757 19.1541 144.231 19.4438 144.856 19.4438C145.467 19.4438 145.955 19.1388 146.291 18.5746C146.596 18.0866 146.748 17.5071 146.748 16.8513L146.718 16.8818ZM156.987 20.4808H155.4V16.3633C155.4 15.0976 154.912 14.4723 153.951 14.4723C153.447 14.4723 153.066 14.6248 152.776 14.9756C152.471 15.3263 152.318 15.7381 152.318 16.1956V20.4656H150.761V15.3416C150.761 14.7011 150.731 14.0148 150.685 13.2828H152.089L152.165 14.3961H152.211C152.394 14.0606 152.669 13.7861 153.035 13.5421C153.462 13.2371 153.951 13.1151 154.469 13.1151C155.141 13.1151 155.69 13.3286 156.148 13.7708C156.697 14.3046 156.972 15.0976 156.972 16.1498V20.4656L156.987 20.4808ZM167.76 14.4876H165.99V17.9951C165.99 18.8796 166.295 19.3218 166.906 19.3218C167.211 19.3218 167.455 19.2913 167.638 19.2456L167.684 20.4656C167.348 20.5723 166.921 20.6181 166.417 20.6181C165.807 20.6181 165.304 20.4351 164.937 20.0538C164.586 19.6726 164.403 19.0321 164.403 18.1171V14.4876H163.335L163.366 13.2981H164.403V11.9713L165.975 11.5138V13.2676H167.745V14.4571L167.76 14.4876ZM176.214 20.4808H174.612V16.3938C174.612 15.1128 174.154 14.4571 173.177 14.4571C172.414 14.4571 171.911 14.8383 171.651 15.5856C171.575 15.7381 171.56 15.9363 171.56 16.1651V20.4808H169.958V10.0041H171.545V14.3351H171.575C172.079 13.5421 172.796 13.1456 173.711 13.1456C174.398 13.1456 174.932 13.3591 175.39 13.8013C175.924 14.3351 176.183 15.1433 176.183 16.2108V20.4808H176.214ZM184.942 16.5463C184.942 16.8513 184.942 17.0801 184.896 17.2783H180.105C180.105 17.9798 180.349 18.5288 180.792 18.8948C181.204 19.1998 181.707 19.3828 182.363 19.3828C183.081 19.3828 183.737 19.2761 184.317 19.0473L184.561 20.1606C183.889 20.4656 183.081 20.6181 182.15 20.6181C181.036 20.6181 180.166 20.2826 179.525 19.6268C178.884 18.9711 178.579 18.1018 178.579 16.9733C178.579 15.9058 178.884 14.9908 179.464 14.2741C180.075 13.5116 180.914 13.1151 181.982 13.1151C183.004 13.1151 183.813 13.5268 184.332 14.2893C184.744 14.8993 184.942 15.6618 184.942 16.5463ZM183.416 16.1346C183.447 15.6771 183.34 15.2501 183.111 14.9146C182.836 14.4571 182.424 14.2436 181.845 14.2436C181.326 14.2436 180.899 14.4571 180.578 14.8993C180.303 15.2348 180.151 15.6618 180.12 16.1193H183.432L183.416 16.1346Z" fill="white"/>
<path d="M198.676 59.475C201.834 59.475 204.474 56.8825 204.474 53.7868V7.21325C204.474 4.1175 201.834 1.525 198.676 1.525H7.21763C6.47018 1.525 5.73006 1.67213 5.03951 1.95799C4.34896 2.24385 3.72151 2.66285 3.19299 3.19105C2.12559 4.2578 1.52593 5.70463 1.52593 7.21325V53.7868C1.52593 56.913 4.08948 59.475 7.21763 59.475H198.676ZM198.676 61H7.21763C3.25022 61 0 57.7518 0 53.7868V7.21325C0 3.24825 3.23496 0 7.21763 0H198.676C202.643 0 206 3.233 206 7.21325V53.7868C206 57.7518 202.643 61 198.676 61Z" fill="#A6A6A6"/>
</svg>
